<svg width="512" height="512" xmlns="http://www.w3.org/2000/svg">
  <!-- Background -->
  <rect width="512" height="512" fill="#000000"/>
  
  <!-- Outer Glow -->
  <circle cx="256" cy="256" r="220" fill="none" stroke="#00ff00" stroke-width="2" opacity="0.3"/>
  <circle cx="256" cy="256" r="200" fill="none" stroke="#00ff00" stroke-width="1" opacity="0.5"/>
  
  <!-- Main Terminal Frame -->
  <rect x="100" y="100" width="312" height="312" fill="none" stroke="#00ff00" stroke-width="4" rx="10"/>
  
  <!-- Top Bar -->
  <line x1="100" y1="130" x2="412" y2="130" stroke="#00ff00" stroke-width="3"/>
  
  <!-- Terminal Dots -->
  <circle cx="120" cy="115" r="5" fill="#ff0000"/>
  <circle cx="140" cy="115" r="5" fill="#ffff00"/>
  <circle cx="160" cy="115" r="5" fill="#00ff00"/>
  
  <!-- Code Symbols - Large and Centered -->
  
  <!-- Opening Bracket < -->
  <path d="M 180 256 L 140 256 L 160 236 L 160 220 L 140 200 L 180 200" 
        fill="none" stroke="#00ff00" stroke-width="6" stroke-linecap="round"/>
  
  <!-- Closing Bracket > -->
  <path d="M 332 256 L 372 256 L 352 236 L 352 220 L 372 200 L 332 200" 
        fill="none" stroke="#00ff00" stroke-width="6" stroke-linecap="round"/>
  
  <!-- Forward Slash / -->
  <line x1="280" y1="320" x2="232" y2="180" stroke="#00ffff" stroke-width="8" stroke-linecap="round"/>
  
  <!-- Curly Braces {} -->
  <path d="M 200 180 L 220 180 Q 230 180 230 190 L 230 210 Q 230 220 220 220 Q 230 220 230 230 L 230 250 Q 230 260 220 260 L 200 260" 
        fill="none" stroke="#ff00ff" stroke-width="5" stroke-linecap="round"/>
  
  <path d="M 312 180 L 292 180 Q 282 180 282 190 L 282 210 Q 282 220 292 220 Q 282 220 282 230 L 282 250 Q 282 260 292 260 L 312 260" 
        fill="none" stroke="#ff00ff" stroke-width="5" stroke-linecap="round"/>
  
  <!-- Underscore with Blink Effect -->
  <line x1="220" y1="340" x2="292" y2="340" stroke="#00ff00" stroke-width="6" stroke-linecap="round"/>
  
  <!-- Terminal Text Lines (Code Effect) -->
  <rect x="120" y="150" width="80" height="4" fill="#00ff00" opacity="0.6"/>
  <rect x="210" y="150" width="60" height="4" fill="#00ff00" opacity="0.6"/>
  <rect x="280" y="150" width="100" height="4" fill="#00ff00" opacity="0.6"/>
  
  <rect x="120" y="360" width="120" height="4" fill="#00ffff" opacity="0.5"/>
  <rect x="250" y="360" width="70" height="4" fill="#00ffff" opacity="0.5"/>
  
  <rect x="120" y="380" width="90" height="4" fill="#ff00ff" opacity="0.5"/>
  <rect x="220" y="380" width="150" height="4" fill="#ff00ff" opacity="0.5"/>
  
  <!-- Corner Brackets (HUD Style) -->
  <path d="M 20,20 L 20,70 M 20,20 L 70,20" stroke="#00ff00" stroke-width="4" fill="none"/>
  <path d="M 492,20 L 492,70 M 492,20 L 442,20" stroke="#00ff00" stroke-width="4" fill="none"/>
  <path d="M 20,492 L 20,442 M 20,492 L 70,492" stroke="#00ff00" stroke-width="4" fill="none"/>
  <path d="M 492,492 L 492,442 M 492,492 L 442,492" stroke="#00ff00" stroke-width="4" fill="none"/>
  
  <!-- Binary Pattern Bottom -->
  <rect x="50" y="465" width="40" height="8" fill="#00ff00" opacity="0.4"/>
  <rect x="150" y="475" width="45" height="8" fill="#00ff00" opacity="0.4"/>
  <rect x="250" y="470" width="50" height="8" fill="#00ff00" opacity="0.4"/>
  <rect x="350" y="480" width="42" height="8" fill="#00ff00" opacity="0.4"/>
  <rect x="450" y="473" width="48" height="8" fill="#00ff00" opacity="0.4"/>
</svg>
